<svg width="445" height="445" viewBox="0 0 445 445" fill="none" xmlns="http://www.w3.org/2000/svg">
<path fill-rule="evenodd" clip-rule="evenodd" d="M264.998 62.7102C263.823 65.137 265.023 67.9222 267.356 69.2739L323.408 101.745C323.649 101.884 323.886 102.027 324.12 102.174C329.09 105.295 337.798 105.08 341.604 100.613C343.649 98.2142 345.953 95.9941 348.504 93.9977C349.752 93.0218 349.528 90.9534 348.157 90.1595V90.1595L283.726 52.8347C277.282 49.1019 268.918 53.5723 266.028 60.4354C265.704 61.2042 265.361 61.9627 264.998 62.7102V62.7102ZM179.229 62.2825C180.935 65.8965 178.918 69.9094 175.459 71.9128L122.078 102.836C121.793 103.002 121.512 103.172 121.237 103.348C116.319 106.482 107.313 106.15 103.653 101.609C101.969 99.5205 100.095 97.5575 98.0374 95.7482C96.4392 94.3428 96.864 91.5207 98.7056 90.4538V90.4538L161.347 54.1661C167.663 50.507 175.838 54.7232 178.817 61.3871C178.951 61.6873 179.089 61.9857 179.229 62.2825V62.2825ZM74.6648 260.026C76.2 258.625 76.7829 256.524 76.7829 254.445V188.898V188.898C76.7829 184.344 72.5133 179.206 67.961 179.329C66.5302 179.368 65.0947 179.343 63.6589 179.251C58.9317 178.951 54.4085 182.385 54.4085 187.122V257.863C54.4085 262.216 58.6189 265.341 62.9492 264.898V264.898C67.2887 264.454 71.5426 262.876 74.6648 260.026ZM106.897 348.987C104.224 347.438 103.741 343.779 105.611 341.319V341.319C109.082 336.752 114.155 333.347 119.891 333.347H121.96C123.72 333.347 125.449 333.812 126.972 334.694L179.223 364.963V364.963C182.98 367.139 185.052 373.176 182.647 376.79C181.738 378.156 180.897 379.571 180.13 381.032C177.975 385.134 172.854 387.195 168.844 384.872L106.897 348.987ZM319.661 334.694C321.184 333.812 322.913 333.347 324.674 333.347H324.855C330.732 333.347 335.898 336.916 339.362 341.664V341.664C341.347 344.383 340.81 348.365 337.897 350.052L275.999 385.909C271.979 388.238 266.841 386.104 264.769 381.945C264.164 380.731 263.509 379.546 262.807 378.393C260.334 374.337 262.862 367.597 266.973 365.216V365.216L319.661 334.694ZM388.233 260.398C388.233 263.757 385.104 266.234 381.757 265.948V265.948C375.74 265.433 369.851 262.739 366.839 257.504V257.504C366.197 256.389 365.859 255.125 365.859 253.839V186.514V186.514C365.859 182.698 369.464 178.774 373.263 179.134C377.518 179.538 381.845 179.371 386.124 178.604C387.227 178.406 388.233 179.36 388.233 180.481V180.481V260.398Z" fill="#F45B69"/>
<path d="M101.014 151.69C90.2746 170.435 66.3341 176.833 47.6516 166.057C28.969 155.282 22.5923 131.261 33.332 112.516C44.0717 93.7715 68.0122 87.3735 86.6948 98.1491C105.377 109.037 111.754 132.945 101.014 151.69Z" fill="#64CB29"/>
<path d="M345.118 151.69C334.378 132.945 340.755 109.037 359.438 98.1491C378.12 87.3735 401.949 93.7715 412.8 112.516C423.54 131.261 417.163 155.169 398.481 166.057C379.798 176.833 355.858 170.435 345.118 151.69Z" fill="#64CB29"/>
<path d="M223.066 442.18C201.475 442.18 184.023 424.669 184.023 403.006C184.023 381.343 201.475 363.833 223.066 363.833C244.657 363.833 262.109 381.343 262.109 403.006C262.109 424.557 244.657 442.18 223.066 442.18Z" fill="#64CB29"/>
<path fill-rule="evenodd" clip-rule="evenodd" d="M217.044 83.7049C218.206 81.6846 220.444 80.5714 222.775 80.5714V80.5714V80.5714C225.101 80.5714 227.335 81.6827 228.495 83.6989L344.878 285.946C346.082 288.038 345.915 290.62 344.715 292.714V292.714V292.714C342.443 296.681 338.499 299.673 333.928 299.673H111.624C107.053 299.673 103.108 296.681 100.835 292.714V292.714V292.714C99.6265 290.626 99.457 288.045 100.66 285.954L217.044 83.7049ZM257.094 77.2763C253.844 71.6285 254.895 64.6351 257.779 58.7922C260.365 53.5538 261.818 47.6488 261.818 41.398C261.818 19.7347 244.366 2.22449 222.775 2.22449C201.184 2.22449 183.732 19.7347 183.732 41.398C183.732 47.6469 185.184 53.5503 187.769 58.7875C190.652 64.6298 191.702 71.6221 188.452 77.269L80.7092 264.503C77.451 270.165 70.853 272.766 64.3351 273.203C58.576 273.589 52.8139 275.266 47.4725 278.347C28.7899 289.235 22.4133 313.143 33.1529 331.888C43.8926 350.633 67.7213 357.031 86.5157 346.255C91.0578 343.608 94.8725 340.191 97.8908 336.267C101.554 331.502 106.779 327.735 112.789 327.735H332.723C338.742 327.735 343.971 331.515 347.639 336.286C350.661 340.217 354.482 343.629 359.035 346.255C377.717 357.031 401.658 350.633 412.398 331.888C423.249 313.143 416.873 289.235 398.078 278.347C392.736 275.266 386.963 273.589 381.192 273.203C374.68 272.768 368.091 270.164 364.836 264.507L257.094 77.2763Z" fill="#2D9EE0"/>
</svg>
