<?xml version="1.0" encoding="UTF-8"?>
<svg width="125px" height="120px" viewBox="0 0 125 120" version="1.1" xmlns="http://www.w3.org/2000/svg" xmlns:xlink="http://www.w3.org/1999/xlink">
    <!-- Generator: Sketch 46.2 (44496) - http://www.bohemiancoding.com/sketch -->
    <title>Layer_x0020_1</title>
    <desc>Created with Sketch.</desc>
    <defs></defs>
    <g id="Page-1" stroke="none" stroke-width="1" fill="none" fill-rule="evenodd">
        <g id="Layer_x0020_1">
            <g id="_337858120">
                <g id="Group" transform="translate(2.991914, 0.485175)">
                    <path d="M118.350404,59.5269542 C118.350404,92.3890027 91.8621833,119.028679 59.1911321,119.028679 C26.5178976,119.028679 0.0316172507,92.3890027 0.0316172507,59.5269542 C0.0317127574,26.6650674 26.5177358,0.025309973 59.1911321,0.025309973 C91.8624259,0.025309973 118.350162,26.6650674 118.350404,59.5269542 Z" id="_337844008" fill="#8BB4DC"></path>
                    <path d="M69.3760108,112.760377 C68.2025175,111.389183 62.22731,94.4447709 61.3445418,93.5631267 C60.463965,92.6815957 59.6801402,89.1557628 60.0720081,88.9597844 C60.463969,88.7640906 62.3242561,90.9188248 62.6191779,90.9188248 C62.912193,90.9187293 64.6754474,90.7228447 63.4999407,89.253566 C62.324345,87.7843827 61.9829111,84.993186 62.324248,84.8950108 C62.6677868,84.7972116 63.3524798,86.1684016 63.843283,85.6785501 C64.332279,85.1888854 66.6348598,84.3562536 66.6348598,84.3562536 C66.6349553,84.3562536 65.4592642,86.5111755 67.0268208,85.9235232 C68.592465,85.335773 69.9638531,82.7891782 70.9434704,82.7891782 C71.9232736,82.7891782 71.1394504,86.5111836 72.5110229,85.7276418 C73.8827911,84.9438162 73.4260795,82.7891782 73.8179394,82.2668466 C74.2079903,81.7444237 75.7105997,82.0708666 77.7993437,82.7239431 C79.8900849,83.3772113 78.4740049,85.0084714 79.4334704,85.7276385 C80.2151951,86.3151978 81.3907884,84.7481183 81.7827534,85.139793 C82.1746189,85.5316585 80.7383814,88.0782566 81.3262302,88.6659089 C81.9141712,89.2534682 85.8307261,92.7795881 87.7901466,91.8002539 C89.7496642,90.8207337 90.5332949,82.0056178 89.5535887,82.0056178 C88.5738744,82.0056178 87.9860361,80.2425558 87.0064189,80.4385423 C86.0268987,80.6342361 83.6775186,81.0262925 84.265276,80.4385423 C84.853217,79.8508876 84.8530261,78.6754803 84.069296,78.8714668 C83.2855658,79.0673515 81.7181046,78.8714668 79.9546625,79.0673515 C78.1914146,79.2631407 77.7993526,77.3042895 77.6033741,76.3248663 C77.4076803,75.3453461 78.7789698,71.2318609 78.1912197,71.2318609 C77.603565,71.2318609 77.0176294,72.4070765 77.4074895,71.4275547 C77.7994504,70.4481315 77.2115094,68.881048 76.7549854,68.1627461 C76.2986531,67.4444377 73.5554086,66.9873445 73.4260852,66.7263202 C73.2948582,66.4651084 75.514724,64.5713984 75.5793898,64.2449563 C75.6462446,63.9183226 76.559104,62.4166625 76.559104,61.6981666 C76.559104,60.9800491 75.4501714,60.3270695 75.254193,59.804835 C75.0584038,59.2824121 76.1025784,57.4542178 75.1228706,57.1275817 C74.1431563,56.800948 73.7512965,58.9558755 73.0988895,58.5642016 C72.4465763,58.1723361 70.3557412,57.1930075 69.834558,56.7359078 C69.3114663,56.2787159 68.2024367,55.6911558 67.6145903,55.1687353 C67.0269356,54.6462162 68.6589623,53.1445601 68.4630728,52.6222286 C68.2670927,52.0998057 66.634876,52.2955949 66.0471267,50.8591666 C65.459472,49.4227407 66.6995353,48.6391989 67.0914016,48.1819132 C67.483458,47.7248167 68.6589542,48.3777978 69.3113693,48.3777978 C69.9638733,48.3777978 70.487062,50.0103962 70.8142642,50.0103962 C71.1394658,50.0103007 71.6626496,48.7042399 72.0545175,48.7042399 C72.4465739,48.7042399 74.4038005,49.7489919 74.7310027,49.6837601 C75.0584005,49.6187199 75.0582097,48.7694717 75.0582097,47.5290243 C75.0584007,46.2882938 72.9675574,46.222965 72.2503957,45.5048491 C71.5315148,44.7867315 71.9231887,43.1541348 72.3797119,42.8274987 C72.8383367,42.5010558 73.4907469,43.4805752 74.0139356,43.3499216 C74.5352127,43.2195542 74.9915474,42.0439593 75.9712536,42.0439593 C76.9510569,42.0439593 77.9952348,44.1986951 79.1709275,43.6765577 C79.7789248,43.4060822 80.8030488,44.3946752 80.9343695,45.3743879 C81.0656919,46.3536251 79.8899976,47.398369 80.6071625,47.398369 C81.3263305,47.398369 81.5867798,46.2883852 81.8493243,46.4188488 C82.1100582,46.5493116 82.2755717,46.9212154 82.2412852,47.8554687 C82.1746213,49.5530078 83.218897,49.7489943 83.4147784,49.7489943 C83.6109501,49.7489943 84.3945817,50.1406682 84.5258135,48.965455 C84.6552251,47.7902394 85.5701854,47.0067057 85.9620453,46.8759509 C86.3541016,46.7456798 87.9214658,46.8107196 87.790145,46.0924116 C87.6590143,45.3744857 88.6385305,44.0029075 88.1820105,43.0887162 C87.7255827,42.1744278 86.68121,42.3705987 86.1580294,42.3051768 C85.6369431,42.239659 85.3742038,41.5870593 85.1136574,40.9337887 C84.8511089,40.280903 85.5055229,40.0852092 85.7661615,40.0199774 C86.0268954,39.9546505 85.9620461,39.4973628 85.8307242,38.6487833 C85.7015035,37.8000097 86.5498921,37.1467456 86.9417592,37.0815137 C87.3338156,37.0164735 87.9214735,35.7103197 88.377894,35.9715299 C90.1373253,36.9762631 90.7291824,37.2121633 91.5129102,37.6038372 C92.296832,37.9955111 92.0340919,39.0404571 91.7735487,39.2364356 C91.513101,39.4323202 91.1210447,39.3668984 90.8605056,40.2159558 C90.5979571,41.0648183 90.9251639,41.8482631 91.6422304,41.9787267 C92.3613983,42.1095712 92.8179231,41.1296701 93.4056725,40.8687429 C93.993518,40.607531 94.9085673,40.3461283 94.9085673,40.3461283 C94.9086628,40.3461283 95.6922975,39.4973547 94.9731301,38.7791418 C94.2562546,38.060738 94.3207215,37.4733736 94.3207215,37.1467375 C94.3207215,36.8201038 93.4056649,36.5590827 92.6219371,35.7103116 C91.8383023,34.861538 91.5129074,33.5553898 91.3816837,31.9883062 C91.2503613,30.4212307 89.553584,30.4864625 89.2930449,30.4212307 C89.030401,30.3559039 88.3778994,30.2255369 87.4628427,29.2460151 C86.5499856,28.2662119 85.6348401,28.201069 85.1136568,28.201069 C84.5906605,28.201069 84.7217913,28.4623763 83.218894,29.4419935 C81.7182875,30.4212307 79.8899937,30.5518803 78.6497403,30.6171121 C77.4076756,30.6823435 76.2337942,30.0295528 75.5793818,29.2460151 C74.9269732,28.4623803 74.2743737,28.5929385 73.9471635,28.6581695 C73.6200519,28.7235919 73.2947549,30.1598272 72.3150422,29.1155523 C71.335619,28.0707032 71.1394465,28.5274205 70.6829209,28.3969577 C70.2265886,28.2662086 69.9638484,27.221742 69.7032066,26.2420358 C69.4428543,25.2626127 70.4223746,24.087397 70.8142417,23.8914186 C71.2041964,23.6954385 71.9231743,24.805707 72.3150422,24.805707 C72.7070031,24.8056115 72.4463646,24.2180523 72.4463646,23.2386315 C72.4465556,22.2591113 73.686618,21.8674375 74.0785829,21.8020116 C74.4704484,21.7368758 75.1228578,20.5612811 75.5147177,20.6266989 C75.9066786,20.6922167 75.1228522,21.2143536 75.5793759,21.5407933 C76.0380007,21.8671407 76.2984484,21.8020051 76.5590902,22.6509631 C77.0440746,24.2220493 77.4074757,24.3486962 77.4074757,24.3486962 C77.4076667,24.3486962 77.2781595,22.9121733 78.3224352,23.0426369 C79.3668961,23.1734814 79.8899878,22.4549822 79.9546536,21.6062111 C80.0193118,20.7573485 79.0416104,20.4960412 78.5830794,20.6266908 C78.1266517,20.7573445 77.734694,19.3860574 78.2578778,19.516707 C78.7790595,19.6472652 80.2818589,19.3208224 79.823336,18.5370898 C79.3669083,17.753455 78.2578778,16.5783404 78.9749506,16.5130116 C79.6942139,16.4477803 81.1302606,17.5577636 81.1302606,17.5577636 C81.1304516,17.5577636 81.5221261,15.7947016 81.3262406,14.6193 C81.1304514,13.4440844 77.995246,10.3097394 77.0176342,8.93854528 C76.0380169,7.56735121 78.1912244,7.07749407 78.1912244,7.07749407 C78.1914155,7.07749407 80.0536099,5.90237547 79.5627986,5.5104186 C79.0739935,5.11874474 76.9186908,2.71903585 76.9186908,2.71903585 C100.996885,10.2121302 118.350389,33.0136989 118.350389,59.6741571 C118.35058,88.1343728 98.4172083,111.916367 71.8181247,117.691165 L69.3760115,112.760427 L69.3760108,112.760377 Z" id="_337844104" fill="#314864"></path>
                    <path d="M59.9450135,114.816712 C27.1330189,109.366221 0.154123989,95.230027 0.154123989,61.4475202 C0.154123989,27.6650135 26.3028841,0.0268463612 58.9206469,0.0268463612 C58.9207424,0.0268463612 63.2313558,-0.175150674 66.8228005,0.548218868 C66.4147949,1.54072561 64.8634771,1.08697358 64.3402884,1.22125633 C63.8192022,1.35572992 61.8597817,2.9707496 61.2072776,3.50902722 C60.5528636,4.04759111 57.2885337,3.77835687 55.9837116,4.18216092 C54.6767951,4.5856779 54.2848302,6.06632264 55.068655,6.47012588 C55.8523852,6.87373827 52.0648625,5.66261402 50.497407,5.93165741 C48.9299434,6.20070081 48.8329084,7.68134474 50.497407,8.62323962 C50.927666,8.86601806 46.9725283,9.16161267 46.9725283,9.16161267 C46.9725283,9.16161267 46.0574717,10.9113 45.1444286,11.1805318 C44.229469,11.4495752 42.0094124,11.0457712 41.2256846,11.5841442 C40.4420499,12.1227081 42.5326011,11.8533784 42.5326011,12.6607965 C42.5326966,13.4683084 41.2256846,14.2762035 41.6175445,15.3525647 C42.00941,16.429217 42.5326011,14.8142871 43.185097,15.7563679 C43.8376011,16.6982547 43.9688272,19.2553625 43.4456402,20.4667722 C42.9225485,21.677996 34.5658019,30.9642655 34.3052628,37.8281199 C34.0428097,44.6919178 25.685155,65.0141846 27.1222763,71.8778774 C28.5585081,78.7416752 59.9451065,114.816691 59.9451065,114.816691 L59.9450135,114.816712 Z" id="_337843792" fill="#314864"></path>
                </g>
                <path d="M104.290027,56.5865499 L96.9544205,50.6367493 C96.9544205,50.6367493 95.4158005,46.940434 92.4448625,44.2781806 C92.4448625,44.2781806 94.2967439,54.0784771 93.9108922,66.9654582 L104.290003,56.5865094 L104.290027,56.5865499 Z" id="_337843768" fill="#F3780F"></path>
                <path d="M95.9660377,88.9528302 L92.8765795,68.6452561 C81.7282237,86.1851482 69.0566604,85.6722372 51.2523477,80.3309434 L53.2279084,98.1103504 L76.7513854,101.145275 L95.9660216,88.9528221 L95.9660377,88.9528302 Z" id="_337843288" fill="#F79612"></path>
                <path d="M51.2816442,96.3331536 L49.3061806,86.4556334 L27.5757493,74.6027224 L11.7718949,31.1419407 L6.66790836,32.1603315 C6.66790836,32.1603315 1.9289434,38.8380889 0.462719677,55.5062345 C0.462719677,55.5062345 -2.0564717,70.6517062 5.84539892,84.4800889 C13.7473585,98.3085526 25.6002776,98.3085526 25.6002776,98.3085526 L51.2816523,96.3330889 L51.2816442,96.3331536 Z" id="_337843408" fill="#F16F08"></path>
                <path d="M35.0351482,49.0244474 L42.0877682,49.8705445 C42.0877682,49.8705445 37.7358922,54.8891482 44.0637089,59.6350189 C44.0637089,59.6350189 49.0409596,61.7570863 55.7932237,58.2073827 L65.0532776,53.3843774 C65.0532776,53.3843774 67.0856685,52.8724601 65.1101043,56.8234852 C65.1101043,56.8234852 63.355452,63.4549164 53.3622336,67.6606011 C53.3622336,67.6606011 45.750328,70.9968518 49.5037485,75.7631078 L56.7575059,87.7241321 L31.5267781,70.6518679 L35.0351285,49.0245364 L35.0351482,49.0244474 Z" id="_337843168" fill="#CD4B06"></path>
                <path d="M64.5331536,28.632938 C64.5331536,28.632938 66.8288571,26.7808625 69.0280916,28.034873 C69.0280916,28.034873 71.8231051,32.8271264 65.6507709,33.064369 L64.5331456,28.6329404 L64.5331536,28.632938 Z" id="_337843120" fill="#424242"></path>
                <path d="M80.9142857,15.3381671 C89.8563881,13.7726199 104.620189,24.6267655 104.620189,33.1175741 L98.6936927,52.8724528 C98.6936927,52.8724528 100.669253,27.191159 80.9142857,15.3381671 L80.9142857,15.3381671 Z" id="_337859152" fill="#F79412"></path>
                <path d="M9.79633423,27.191159 C9.79633423,27.191159 9.80731755,14.9111321 16.7161051,7.22264151 C16.7161051,7.22264151 16.7161051,14.8622507 20.8060027,19.4151752 C20.8060027,19.4151752 15.7228302,29.1666307 9.79632615,27.1911671 L9.79633423,27.191159 Z" id="_337858936" fill="#F47930"></path>
                <path d="M37.4532615,19.2891914 C37.4532615,19.2891914 45.6531267,10.8493261 56.3793801,9.53757412 C56.3793801,9.53757412 50.6287116,14.5025094 47.3307008,25.2156873 C47.3307008,25.2156873 37.4532615,23.2401267 37.4532615,19.2891914 L37.4532615,19.2891914 Z" id="_337858912" fill="#F25900"></path>
                <path d="M44.4892722,32.2791105 L67.0855795,33.117566 C67.0855795,33.117566 59.2420674,43.4632803 48.3477089,45.204655 L44.4893208,32.2791024 L44.4892722,32.2791105 Z" id="_337858528" fill="#FFFFFE"></path>
                <path d="M81.9485175,0.0608894879 C81.9485175,0.0608894879 96.7174124,11.3872237 98.692965,23.2401348 L107.413827,35.789434 L114.496916,25.2156873 C114.496916,25.2156873 105.793278,0.138032345 81.9485337,0.0608894879 L81.9485175,0.0608894879 Z" id="_337858648" fill="#FFC414"></path>
                <path d="M110.269811,12.4077089 C114.114736,36.8083827 101.372507,24.8865768 119.607089,44.2008356 C119.607089,44.2008356 125.163113,24.445876 110.269811,12.4077089 Z" id="_337857664" fill="#F2770F"></path>
                <path d="M6.66792453,32.1604852 C6.66792453,32.1604852 13.886531,17.4809434 29.6903774,17.4809434 C29.6903774,17.4809434 36.7698356,16.6607305 43.5187601,23.4074394 C43.5187601,23.4074394 50.036345,27.298876 54.2805121,28.0705714 L66.7624528,27.9549121 C66.7624528,27.9549121 69.9210566,33.6530523 59.3227439,35.2603407 L47.4698329,35.2603407 C47.4698329,35.2603407 49.6116712,41.1890361 52.8141186,44.4686426 L59.3227278,51.0642598 C53.4234501,50.6170957 48.0334286,50.0489256 42.0878491,49.8705186 L40.0042722,50.2564625 C31.1159434,62.3916647 45.3569596,78.6387267 55.3717925,84.6477024 L71.1756469,100.451557 C71.1756469,100.451557 90.9305256,90.5741175 92.9059973,68.8436863 C92.9059973,68.8436863 96.8571186,43.1623925 106.734542,25.3830663 C106.734542,25.3830663 115.762116,31.0868426 122.039555,41.2304248 C123.501291,46.5140636 124.285876,52.079104 124.285876,57.8277833 C124.285876,92.1309639 96.4777358,119.939023 62.174717,119.939023 C35.8261456,119.939023 13.3118329,103.531287 4.28595687,80.3768668 C2.36072507,68.8636593 24.0024259,97.7733898 48.2986253,89.0331202 L48.1931854,88.8891914 C19.6761235,87.7528464 16.5155305,57.4309973 6.66809111,32.1604043 L6.66792453,32.1604852 Z" id="_337858144" fill="#F25900"></path>
            </g>
        </g>
    </g>
</svg>