<?xml version="1.0" encoding="UTF-8"?>
<svg width="120px" height="120px" viewBox="0 0 120 120" version="1.1" xmlns="http://www.w3.org/2000/svg" xmlns:xlink="http://www.w3.org/1999/xlink">
    <!-- Generator: Sketch 45 (43475) - http://www.bohemiancoding.com/sketch -->
    <title>Linux</title>
    <desc>Created with Sketch.</desc>
    <defs></defs>
    <g id="Site" stroke="none" stroke-width="1" fill="none" fill-rule="evenodd">
        <g id="Desktop" transform="translate(-720.000000, -1366.000000)">
            <g id="Get-altair" transform="translate(0.000000, 1226.000000)">
                <g id="Linux" transform="translate(720.000000, 140.000000)">
                    <g id="if_linux-server-system-platform-os-computer-penguin_652577">
                        <g>
                            <circle id="Oval" fill="#F3BF00" fill-rule="nonzero" cx="60" cy="60" r="60"></circle>
                            <path d="M54.24,38.64 C53.4,38.76 53.76,39.48 53.28,39.48 C52.92,39.48 52.92,38.52 54.24,38.64 Z M56.76,38.76 C57.48,38.52 57.6,39.36 57.96,39.24 C58.32,39.12 57.96,38.28 56.76,38.76 Z M83.52,90.12 C81.12,91.32 78,93.96 76.8,95.16 C75.96,96 72.36,96.36 70.32,95.4 C67.92,94.2 69.24,92.28 65.52,92.16 C63.72,92.16 61.92,92.16 60.12,92.16 C58.56,92.16 57,92.28 55.32,92.28 C49.8,92.28 49.2,95.88 45.72,95.76 C43.32,95.64 40.32,93.72 35.04,92.64 C31.32,91.92 27.84,91.68 27.12,90.12 C26.4,88.56 28.08,86.64 28.2,85.08 C28.32,82.92 26.64,80.16 27.84,78.96 C28.92,78 31.2,78.72 32.64,77.88 C34.2,77.04 34.92,76.32 34.92,74.28 C35.52,76.2 34.92,77.88 33.6,78.72 C32.88,79.2 31.32,79.44 30.24,79.32 C29.28,79.2 28.68,79.44 28.44,79.8 C28.08,80.28 28.2,81.12 28.68,82.2 C29.16,83.28 29.64,84 29.64,85.32 C29.52,86.64 28.08,88.2 28.32,89.4 C28.44,89.88 28.8,90.24 29.88,90.48 C31.56,90.96 34.56,91.44 37.56,92.16 C40.8,93 44.28,94.44 46.32,94.2 C52.68,93.36 49.08,86.52 48,84.96 C42.72,76.56 39.12,71.04 36.36,73.2 C35.64,73.8 35.64,71.76 35.64,71.04 C35.76,68.28 37.2,67.32 38.04,65.16 C39.6,61.08 40.8,56.52 43.2,54.12 C45,51.84 47.76,48 48.36,46.08 C47.88,41.76 47.76,37.2 47.76,33.12 C47.64,28.92 48.36,25.08 53.16,22.56 C54.36,21.96 55.8,21.72 57.48,21.72 C60.36,21.72 63.6,22.44 65.52,24 C68.76,26.4 70.8,31.56 70.56,35.16 C70.32,38.04 70.92,40.92 71.76,44.04 C72.84,47.64 74.52,50.16 77.28,53.16 C80.52,56.64 83.16,63.48 83.88,67.92 C84.6,72 83.64,74.52 82.8,74.64 C81.48,74.88 80.64,79.08 76.44,78.84 C73.8,78.72 73.56,77.16 72.84,75.84 C71.64,73.68 70.44,74.4 69.96,76.56 C69.72,77.64 69.84,79.32 70.2,80.64 C70.92,83.28 70.68,85.68 70.2,88.68 C69.36,94.44 74.16,95.52 77.52,92.76 C80.76,90.12 81.48,89.64 85.56,88.2 C91.8,86.04 89.64,84.24 86.4,83.04 C83.4,82.08 83.28,77.04 84.36,76.08 C84.6,81.48 87.36,82.32 88.56,83.04 C93.6,86.04 86.52,88.68 83.52,90.12 Z M69.84,74.28 C70.44,73.56 71.04,73.56 72,73.56 C72.12,70.32 77.28,70.56 78.96,71.88 C78.96,71.16 77.4,70.44 76.68,70.08 C77.76,66.36 77.28,64.92 76.56,61.32 C75.96,58.68 73.56,55.08 71.64,53.88 C72.12,54.36 73.08,55.56 74.04,57.36 C75.72,60.48 77.4,65.04 76.32,68.88 C75.84,70.32 74.88,70.56 74.28,70.56 C71.28,70.92 73.08,67.08 71.88,61.92 C70.56,56.16 69.12,55.68 68.76,55.2 C67.08,47.64 65.16,48.36 64.68,45.6 C64.2,43.08 66.84,41.04 63.24,40.32 C62.16,40.08 60.6,39 59.88,38.88 C59.28,38.76 58.92,34.68 61.2,34.56 C63.48,34.44 63.96,37.2 63.48,38.28 C62.88,39.36 63.48,39.72 64.68,39.36 C65.64,39.12 65.04,36.6 65.28,36.24 C64.68,32.76 63.24,32.28 61.68,32.04 C55.92,32.52 58.56,38.76 57.96,38.16 C57.12,37.32 54.72,38.16 54.72,37.56 C54.72,34.32 53.64,32.4 52.2,32.4 C50.52,32.4 49.8,34.68 49.8,36 C49.68,37.2 50.52,39.84 51.12,39.72 C51.48,39.6 52.2,38.76 51.48,38.76 C51.12,38.76 50.52,37.92 50.52,36.84 C50.52,35.76 50.88,34.68 52.32,34.68 C54,34.8 54,37.92 53.76,38.16 C53.28,38.52 52.56,39.24 52.44,39.36 C51.96,40.2 50.88,40.44 50.52,40.8 C49.8,41.52 49.68,42.36 50.16,42.72 C52.08,43.8 51.48,45 54.12,45.12 C55.8,45.24 57.12,44.88 58.32,44.52 C59.28,44.28 62.16,43.56 62.88,42.48 C63.12,42 63.48,42 63.72,42.12 C64.08,42.36 64.2,43.08 63.12,43.44 C61.68,43.8 60.12,44.64 58.92,45.12 C57.6,45.6 57.24,45.84 56.04,46.08 C53.28,46.56 51.24,45.12 53.16,46.92 C53.76,47.52 54.36,47.88 55.92,47.88 C59.4,47.76 63.24,43.56 63.6,45.48 C63.72,45.84 62.52,46.44 61.56,46.8 C58.32,48.36 56.04,51.6 54,50.4 C52.08,49.44 50.28,44.76 50.28,46.92 C50.28,50.16 46.08,52.92 48,56.52 C46.68,56.88 43.8,63 43.44,66.12 C43.2,67.92 43.56,70.2 43.2,71.4 C42.6,73.2 39.72,69.72 40.68,65.28 C40.8,64.56 40.68,64.32 40.44,64.68 C39.24,66.72 39.96,69.6 40.8,71.52 C41.16,72.36 42.12,72.72 42.84,73.56 C44.28,75.24 50.04,79.44 51,80.52 C52.2,81.72 51.96,84.6 49.2,84.84 C50.52,87.36 51.84,87.6 51.84,91.92 C53.4,91.08 52.8,89.28 52.08,88.08 C51.6,87.24 51,86.88 51.12,86.76 C51.24,86.64 51.96,85.92 52.44,86.52 C53.88,88.08 56.52,88.32 59.4,88.08 C62.28,87.72 65.28,86.76 66.72,84.48 C67.44,83.4 67.8,83.04 68.16,83.28 C68.52,83.52 68.64,84.24 68.52,85.44 C68.52,86.76 67.92,88.2 67.56,89.28 C67.2,90.6 67.08,91.44 68.28,91.44 C68.64,89.16 69.24,86.76 69.48,84.48 C69.6,81.72 67.68,76.8 69.84,74.28 Z M52.32,36.84 C52.2,37.32 52.32,37.68 52.68,37.68 C52.68,37.68 52.8,37.68 52.8,37.56 C52.92,36.48 52.44,35.76 52.2,35.76 C51.72,35.64 51.72,36.36 51.96,36.36 C52.2,36.24 52.44,36.48 52.32,36.84 Z M61.68,35.4 C61.2,35.4 61.32,35.76 61.56,35.76 C61.92,35.88 62.16,36.48 62.28,37.08 C62.28,37.08 62.76,36.96 62.76,36.84 C62.88,35.88 61.92,35.4 61.68,35.4 Z" id="Shape" fill="#222222" fill-rule="nonzero"></path>
                        </g>
                    </g>
                </g>
            </g>
        </g>
    </g>
</svg>