<?xml version="1.0" encoding="UTF-8"?>
<svg width="120px" height="120px" viewBox="0 0 120 120" version="1.1" xmlns="http://www.w3.org/2000/svg" xmlns:xlink="http://www.w3.org/1999/xlink">
    <!-- Generator: Sketch 46.2 (44496) - http://www.bohemiancoding.com/sketch -->
    <title>if_window_512536</title>
    <desc>Created with Sketch.</desc>
    <defs></defs>
    <g id="Page-1" stroke="none" stroke-width="1" fill="none" fill-rule="evenodd">
        <g id="if_window_512536">
            <circle id="circle6" fill="#8CB965" cx="59.9783255" cy="59.9783255" r="59.9783255"></circle>
            <path d="M102.320151,28.4240828 C102.320151,26.2812418 100.583029,24.5442333 98.4401881,24.5442333 L21.5164628,24.5442333 C19.3736218,24.5442333 17.6365005,26.2812418 17.6365005,28.4240828 L17.6365005,91.5325682 C17.6365005,93.6754092 19.3736218,95.4124177 21.5164628,95.4124177 L98.4401881,95.4124177 C100.583029,95.4124177 102.320151,93.6754092 102.320151,91.5325682 L102.320151,28.4240828 Z" id="Shape" fill="#FFFFFF"></path>
            <path d="M102.320151,28.4240828 L102.320151,36.1989087 L17.6365005,36.1989087 L17.6365005,28.4240828 C17.6366134,26.2812418 19.3737347,24.5442333 21.5164628,24.5442333 L98.4401881,24.5442333 C100.582916,24.5442333 102.320038,26.2812418 102.320151,28.4240828 Z" id="Shape" fill="#D9D6D4"></path>
            <path d="M25.2794732,26.5605268 C27.3842709,26.4274318 29.1983819,28.0258137 29.331477,30.1304986 C29.464572,32.2352963 27.86619,34.0494073 25.7615052,34.1825024 C23.6567074,34.3155974 21.8425964,32.7173283 21.7095014,30.6125306 C21.5764064,28.5077328 23.1747883,26.6936218 25.2794732,26.5605268 Z" id="Shape" fill="#F53939"></path>
            <path d="M35.2578739,26.5605268 C37.3626717,26.4274318 39.1767827,28.0258137 39.3098777,30.1304986 C39.4429727,32.2352963 37.8445908,34.0494073 35.739793,34.1825024 C33.6351082,34.3155974 31.8208843,32.7173283 31.6877893,30.6125306 C31.5546943,28.5077328 33.1530762,26.6936218 35.2578739,26.5605268 Z" id="Shape" fill="#EA9B38"></path>
            <path d="M45.2361618,26.5605268 C47.3409595,26.4274318 49.1550706,28.0258137 49.2881656,30.1304986 C49.4212606,32.2352963 47.8229915,34.0494073 45.7181938,34.1825024 C43.613396,34.3155974 41.799285,32.7173283 41.66619,30.6125306 C41.533095,28.5077328 43.131477,26.6936218 45.2361618,26.5605268 Z" id="Shape" fill="#8CC666"></path>
        </g>
    </g>
</svg>