<?xml version="1.0" encoding="UTF-8"?>
<svg width="120px" height="120px" viewBox="0 0 120 120" version="1.1" xmlns="http://www.w3.org/2000/svg" xmlns:xlink="http://www.w3.org/1999/xlink">
    <!-- Generator: Sketch 45 (43475) - http://www.bohemiancoding.com/sketch -->
    <title>Apple iOS</title>
    <desc>Created with Sketch.</desc>
    <defs></defs>
    <g id="Site" stroke="none" stroke-width="1" fill="none" fill-rule="evenodd">
        <g id="Desktop" transform="translate(-143.000000, -1366.000000)">
            <g id="Get-altair" transform="translate(0.000000, 1226.000000)">
                <g id="Mac" transform="translate(143.000000, 140.000000)">
                    <g id="Apple-iOS">
                        <g id="if_apple-ios-system-platform-os-mac-linux_652586">
                            <circle id="Oval" fill="#F2F2F2" fill-rule="nonzero" cx="60" cy="60" r="60"></circle>
                            <path d="M63.72,36 C62.64,36.36 61.2,36.6 59.16,36.72 C59.28,32.4 60.36,28.68 62.52,25.56 C64.68,22.44 68.28,20.28 73.32,19.2 C73.32,19.32 73.44,19.44 73.44,19.68 C73.44,19.92 73.56,20.04 73.56,20.16 C73.56,20.28 73.56,20.4 73.56,20.64 C73.56,20.76 73.56,21 73.56,21.12 C73.56,22.92 73.2,24.84 72.36,27 C71.52,29.16 70.2,31.2 68.4,33 C66.84,34.44 65.28,35.52 63.72,36 Z M83.16,66.36 C81.12,63.48 80.16,60.24 80.16,56.76 C80.16,53.52 81.12,50.52 82.92,47.76 C83.88,46.32 85.56,44.64 87.84,42.6 C86.28,40.8 84.84,39.36 83.28,38.28 C80.52,36.36 77.52,35.52 74.04,35.52 C72,35.52 69.48,36 66.6,36.96 C63.72,37.92 61.68,38.4 60.36,38.4 C59.4,38.4 57.36,37.92 54.36,37.08 C51.36,36.24 48.72,35.76 46.68,35.76 C41.76,35.76 37.68,37.8 34.44,42 C31.2,46.2 29.52,51.6 29.52,58.2 C29.52,65.16 31.68,72.48 35.88,79.92 C40.2,87.36 44.52,91.08 48.96,91.08 C50.4,91.08 52.32,90.6 54.72,89.64 C57,88.68 59.16,88.2 60.84,88.2 C62.76,88.2 64.92,88.68 67.32,89.64 C69.96,90.6 72,91.08 73.32,91.08 C77.04,91.08 80.76,88.2 84.48,82.56 C86.88,78.96 88.68,75.36 89.76,71.76 C87.48,71.04 85.2,69.12 83.16,66.36 Z" id="Shape" fill="#231F20" fill-rule="nonzero"></path>
                        </g>
                    </g>
                </g>
            </g>
        </g>
    </g>
</svg>
